<svg width="23" height="12" fill="none" xmlns="http://www.w3.org/2000/svg"><g clip-path="url(#clip1)"><path opacity=".75" d="M2.116 5.297h13.817c.64 0 1.158.346 1.158.773 0 .427-.519.773-1.158.773H2.116c-.64 0-1.158-.346-1.158-.773 0-.427.519-.773 1.158-.773z" fill="#fff"/><mask id="a" maskUnits="userSpaceOnUse" x="15" y="0" width="8" height="12"><path d="M15.683 12V.14h6.922V12h-6.922z" fill="#fff"/></mask><g mask="url(#a)"><path d="M16.233.14c.103 0 .204.04.293.119l5.822 5.156c.16.143.258.389.258.655s-.098.512-.258.655l-5.822 5.156a.418.418 0 0 1-.559.022c-.176-.136-.284-.395-.284-.676V.913c0-.281.108-.54.284-.676a.429.429 0 0 1 .266-.097z" fill="#fff"/></g></g><defs><clipPath id="clip1"><path fill="#fff" transform="rotate(-90 6.479 5.521)" d="M0 0h11.858v21.651H0z"/></clipPath></defs></svg>