<svg width="31" height="31" viewBox="0 0 31 31" fill="none" xmlns="http://www.w3.org/2000/svg">
<mask id="path-1-inside-1" fill="white">
<path d="M8.61748 16.9091C10.1187 16.9091 10.9052 17.061 11.7244 17.4991C12.4866 17.9067 13.0933 18.5134 13.5009 19.2756C13.939 20.0948 14.0909 20.8813 14.0909 22.3825V25.5266C14.0909 27.0278 13.939 27.8143 13.5009 28.6335C13.0933 29.3957 12.4866 30.0024 11.7244 30.41C10.9052 30.8481 10.1187 31 8.61748 31H5.47343C3.97221 31 3.18572 30.8481 2.3665 30.41C1.60427 30.0024 0.997646 29.3957 0.590002 28.6335C0.151879 27.8143 0 27.0278 0 25.5266V22.3825C0 20.8813 0.151879 20.0948 0.590002 19.2756C0.997646 18.5134 1.60427 17.9067 2.3665 17.4991C3.18572 17.061 3.97221 16.9091 5.47343 16.9091H8.61748ZM25.5266 16.9091C27.0278 16.9091 27.8143 17.061 28.6335 17.4991C29.3957 17.9067 30.0024 18.5134 30.41 19.2756C30.8481 20.0948 31 20.8813 31 22.3825V25.5266C31 27.0278 30.8481 27.8143 30.41 28.6335C30.0024 29.3957 29.3957 30.0024 28.6335 30.41C27.8143 30.8481 27.0278 31 25.5266 31H22.3825C20.8813 31 20.0948 30.8481 19.2756 30.41C18.5134 30.0024 17.9067 29.3957 17.4991 28.6335C17.061 27.8143 16.9091 27.0278 16.9091 25.5266V22.3825C16.9091 20.8813 17.061 20.0948 17.4991 19.2756C17.9067 18.5134 18.5134 17.9067 19.2756 17.4991C20.0948 17.061 20.8813 16.9091 22.3825 16.9091H25.5266ZM8.61748 19.7273H5.47343C4.39766 19.7273 4.05068 19.7943 3.69555 19.9842C3.42444 20.1292 3.2201 20.3335 3.07511 20.6046C2.88519 20.9598 2.81818 21.3067 2.81818 22.3825V25.5266C2.81818 26.6023 2.88519 26.9493 3.07511 27.3045C3.2201 27.5756 3.42444 27.7799 3.69555 27.9249C4.05068 28.1148 4.39766 28.1818 5.47343 28.1818H8.61748C9.69325 28.1818 10.0402 28.1148 10.3954 27.9249C10.6665 27.7799 10.8708 27.5756 11.0158 27.3045C11.2057 26.9493 11.2727 26.6023 11.2727 25.5266V22.3825C11.2727 21.3067 11.2057 20.9598 11.0158 20.6046C10.8708 20.3335 10.6665 20.1292 10.3954 19.9842C10.0402 19.7943 9.69325 19.7273 8.61748 19.7273ZM25.5266 19.7273H22.3825C21.3067 19.7273 20.9598 19.7943 20.6046 19.9842C20.3335 20.1292 20.1292 20.3335 19.9842 20.6046C19.7943 20.9598 19.7273 21.3067 19.7273 22.3825V25.5266C19.7273 26.6023 19.7943 26.9493 19.9842 27.3045C20.1292 27.5756 20.3335 27.7799 20.6046 27.9249C20.9598 28.1148 21.3067 28.1818 22.3825 28.1818H25.5266C26.6023 28.1818 26.9493 28.1148 27.3045 27.9249C27.5756 27.7799 27.7799 27.5756 27.9249 27.3045C28.1148 26.9493 28.1818 26.6023 28.1818 25.5266V22.3825C28.1818 21.3067 28.1148 20.9598 27.9249 20.6046C27.7799 20.3335 27.5756 20.1292 27.3045 19.9842C26.9493 19.7943 26.6023 19.7273 25.5266 19.7273ZM8.61748 0C10.1187 0 10.9052 0.151879 11.7244 0.590002C12.4866 0.997646 13.0933 1.60427 13.5009 2.3665C13.939 3.18572 14.0909 3.97221 14.0909 5.47343V8.61748C14.0909 10.1187 13.939 10.9052 13.5009 11.7244C13.0933 12.4866 12.4866 13.0933 11.7244 13.5009C10.9052 13.939 10.1187 14.0909 8.61748 14.0909H5.47343C3.97221 14.0909 3.18572 13.939 2.3665 13.5009C1.60427 13.0933 0.997646 12.4866 0.590002 11.7244C0.151879 10.9052 0 10.1187 0 8.61748V5.47343C0 3.97221 0.151879 3.18572 0.590002 2.3665C0.997646 1.60427 1.60427 0.997646 2.3665 0.590002C3.18572 0.151879 3.97221 0 5.47343 0H8.61748ZM8.61748 2.81818H5.47343C4.39766 2.81818 4.05068 2.88519 3.69555 3.07511C3.42444 3.2201 3.2201 3.42444 3.07511 3.69555C2.88519 4.05068 2.81818 4.39766 2.81818 5.47343V8.61748C2.81818 9.69325 2.88519 10.0402 3.07511 10.3954C3.2201 10.6665 3.42444 10.8708 3.69555 11.0158C4.05068 11.2057 4.39766 11.2727 5.47343 11.2727H8.61748C9.69325 11.2727 10.0402 11.2057 10.3954 11.0158C10.6665 10.8708 10.8708 10.6665 11.0158 10.3954C11.2057 10.0402 11.2727 9.69325 11.2727 8.61748V5.47343C11.2727 4.39766 11.2057 4.05068 11.0158 3.69555C10.8708 3.42444 10.6665 3.2201 10.3954 3.07511C10.0402 2.88519 9.69325 2.81818 8.61748 2.81818Z"/>
<path d="M25.4873 0.0067153C26.9886 0.0067153 27.7751 0.158594 28.5943 0.596717C29.3565 1.00436 29.9631 1.61099 30.3708 2.37321C30.8089 3.19243 30.9608 3.97892 30.9608 5.48015V8.62419C30.9608 10.1254 30.8089 10.9119 30.3708 11.7311C29.9631 12.4934 29.3565 13.1 28.5943 13.5076C27.7751 13.9457 26.9886 14.0976 25.4873 14.0976H22.3433C20.8421 14.0976 20.0556 13.9457 19.2364 13.5076C18.4741 13.1 17.8675 12.4934 17.4599 11.7311C17.0217 10.9119 16.8699 10.1254 16.8699 8.62419V5.48015C16.8699 3.97892 17.0217 3.19243 17.4599 2.37321C17.8675 1.61099 18.4741 1.00436 19.2364 0.596717C20.0556 0.158594 20.8421 0.0067153 22.3433 0.0067153H25.4873ZM25.4873 2.8249H22.3433C21.2675 2.8249 20.9205 2.8919 20.5654 3.08183C20.2943 3.22682 20.09 3.43116 19.945 3.70226C19.7551 4.05739 19.688 4.40437 19.688 5.48015V8.62419C19.688 9.69997 19.7551 10.0469 19.945 10.4021C20.09 10.6732 20.2943 10.8775 20.5654 11.0225C20.9205 11.2124 21.2675 11.2794 22.3433 11.2794H25.4873C26.5631 11.2794 26.9101 11.2124 27.2652 11.0225C27.5363 10.8775 27.7407 10.6732 27.8857 10.4021C28.0756 10.0469 28.1426 9.69997 28.1426 8.62419V5.48015C28.1426 4.40437 28.0756 4.05739 27.8857 3.70226C27.7407 3.43116 27.5363 3.22682 27.2652 3.08183C26.9101 2.8919 26.5631 2.8249 25.4873 2.8249Z"/>
</mask>
<path d="M8.61748 16.9091C10.1187 16.9091 10.9052 17.061 11.7244 17.4991C12.4866 17.9067 13.0933 18.5134 13.5009 19.2756C13.939 20.0948 14.0909 20.8813 14.0909 22.3825V25.5266C14.0909 27.0278 13.939 27.8143 13.5009 28.6335C13.0933 29.3957 12.4866 30.0024 11.7244 30.41C10.9052 30.8481 10.1187 31 8.61748 31H5.47343C3.97221 31 3.18572 30.8481 2.3665 30.41C1.60427 30.0024 0.997646 29.3957 0.590002 28.6335C0.151879 27.8143 0 27.0278 0 25.5266V22.3825C0 20.8813 0.151879 20.0948 0.590002 19.2756C0.997646 18.5134 1.60427 17.9067 2.3665 17.4991C3.18572 17.061 3.97221 16.9091 5.47343 16.9091H8.61748ZM25.5266 16.9091C27.0278 16.9091 27.8143 17.061 28.6335 17.4991C29.3957 17.9067 30.0024 18.5134 30.41 19.2756C30.8481 20.0948 31 20.8813 31 22.3825V25.5266C31 27.0278 30.8481 27.8143 30.41 28.6335C30.0024 29.3957 29.3957 30.0024 28.6335 30.41C27.8143 30.8481 27.0278 31 25.5266 31H22.3825C20.8813 31 20.0948 30.8481 19.2756 30.41C18.5134 30.0024 17.9067 29.3957 17.4991 28.6335C17.061 27.8143 16.9091 27.0278 16.9091 25.5266V22.3825C16.9091 20.8813 17.061 20.0948 17.4991 19.2756C17.9067 18.5134 18.5134 17.9067 19.2756 17.4991C20.0948 17.061 20.8813 16.9091 22.3825 16.9091H25.5266ZM8.61748 19.7273H5.47343C4.39766 19.7273 4.05068 19.7943 3.69555 19.9842C3.42444 20.1292 3.2201 20.3335 3.07511 20.6046C2.88519 20.9598 2.81818 21.3067 2.81818 22.3825V25.5266C2.81818 26.6023 2.88519 26.9493 3.07511 27.3045C3.2201 27.5756 3.42444 27.7799 3.69555 27.9249C4.05068 28.1148 4.39766 28.1818 5.47343 28.1818H8.61748C9.69325 28.1818 10.0402 28.1148 10.3954 27.9249C10.6665 27.7799 10.8708 27.5756 11.0158 27.3045C11.2057 26.9493 11.2727 26.6023 11.2727 25.5266V22.3825C11.2727 21.3067 11.2057 20.9598 11.0158 20.6046C10.8708 20.3335 10.6665 20.1292 10.3954 19.9842C10.0402 19.7943 9.69325 19.7273 8.61748 19.7273ZM25.5266 19.7273H22.3825C21.3067 19.7273 20.9598 19.7943 20.6046 19.9842C20.3335 20.1292 20.1292 20.3335 19.9842 20.6046C19.7943 20.9598 19.7273 21.3067 19.7273 22.3825V25.5266C19.7273 26.6023 19.7943 26.9493 19.9842 27.3045C20.1292 27.5756 20.3335 27.7799 20.6046 27.9249C20.9598 28.1148 21.3067 28.1818 22.3825 28.1818H25.5266C26.6023 28.1818 26.9493 28.1148 27.3045 27.9249C27.5756 27.7799 27.7799 27.5756 27.9249 27.3045C28.1148 26.9493 28.1818 26.6023 28.1818 25.5266V22.3825C28.1818 21.3067 28.1148 20.9598 27.9249 20.6046C27.7799 20.3335 27.5756 20.1292 27.3045 19.9842C26.9493 19.7943 26.6023 19.7273 25.5266 19.7273ZM8.61748 0C10.1187 0 10.9052 0.151879 11.7244 0.590002C12.4866 0.997646 13.0933 1.60427 13.5009 2.3665C13.939 3.18572 14.0909 3.97221 14.0909 5.47343V8.61748C14.0909 10.1187 13.939 10.9052 13.5009 11.7244C13.0933 12.4866 12.4866 13.0933 11.7244 13.5009C10.9052 13.939 10.1187 14.0909 8.61748 14.0909H5.47343C3.97221 14.0909 3.18572 13.939 2.3665 13.5009C1.60427 13.0933 0.997646 12.4866 0.590002 11.7244C0.151879 10.9052 0 10.1187 0 8.61748V5.47343C0 3.97221 0.151879 3.18572 0.590002 2.3665C0.997646 1.60427 1.60427 0.997646 2.3665 0.590002C3.18572 0.151879 3.97221 0 5.47343 0H8.61748ZM8.61748 2.81818H5.47343C4.39766 2.81818 4.05068 2.88519 3.69555 3.07511C3.42444 3.2201 3.2201 3.42444 3.07511 3.69555C2.88519 4.05068 2.81818 4.39766 2.81818 5.47343V8.61748C2.81818 9.69325 2.88519 10.0402 3.07511 10.3954C3.2201 10.6665 3.42444 10.8708 3.69555 11.0158C4.05068 11.2057 4.39766 11.2727 5.47343 11.2727H8.61748C9.69325 11.2727 10.0402 11.2057 10.3954 11.0158C10.6665 10.8708 10.8708 10.6665 11.0158 10.3954C11.2057 10.0402 11.2727 9.69325 11.2727 8.61748V5.47343C11.2727 4.39766 11.2057 4.05068 11.0158 3.69555C10.8708 3.42444 10.6665 3.2201 10.3954 3.07511C10.0402 2.88519 9.69325 2.81818 8.61748 2.81818Z" stroke="black" stroke-width="4" mask="url(#path-1-inside-1)"/>
<path d="M25.4873 0.0067153C26.9886 0.0067153 27.7751 0.158594 28.5943 0.596717C29.3565 1.00436 29.9631 1.61099 30.3708 2.37321C30.8089 3.19243 30.9608 3.97892 30.9608 5.48015V8.62419C30.9608 10.1254 30.8089 10.9119 30.3708 11.7311C29.9631 12.4934 29.3565 13.1 28.5943 13.5076C27.7751 13.9457 26.9886 14.0976 25.4873 14.0976H22.3433C20.8421 14.0976 20.0556 13.9457 19.2364 13.5076C18.4741 13.1 17.8675 12.4934 17.4599 11.7311C17.0217 10.9119 16.8699 10.1254 16.8699 8.62419V5.48015C16.8699 3.97892 17.0217 3.19243 17.4599 2.37321C17.8675 1.61099 18.4741 1.00436 19.2364 0.596717C20.0556 0.158594 20.8421 0.0067153 22.3433 0.0067153H25.4873ZM25.4873 2.8249H22.3433C21.2675 2.8249 20.9205 2.8919 20.5654 3.08183C20.2943 3.22682 20.09 3.43116 19.945 3.70226C19.7551 4.05739 19.688 4.40437 19.688 5.48015V8.62419C19.688 9.69997 19.7551 10.0469 19.945 10.4021C20.09 10.6732 20.2943 10.8775 20.5654 11.0225C20.9205 11.2124 21.2675 11.2794 22.3433 11.2794H25.4873C26.5631 11.2794 26.9101 11.2124 27.2652 11.0225C27.5363 10.8775 27.7407 10.6732 27.8857 10.4021C28.0756 10.0469 28.1426 9.69997 28.1426 8.62419V5.48015C28.1426 4.40437 28.0756 4.05739 27.8857 3.70226C27.7407 3.43116 27.5363 3.22682 27.2652 3.08183C26.9101 2.8919 26.5631 2.8249 25.4873 2.8249Z" stroke="black" stroke-width="4" mask="url(#path-1-inside-1)"/>
</svg>
