<svg width="25" height="25" viewBox="0 0 25 25" fill="none" xmlns="http://www.w3.org/2000/svg"><path d="M1.65146 10.9052L11.1515 2.23127C11.9152 1.5339 13.0848 1.5339 13.8485 2.23127L23.3485 10.9052C23.7636 11.2841 24 11.8202 24 12.3822V22C24 23.1046 23.1046 24 22 24H17.2381C16.1335 24 15.2381 23.1046 15.2381 22V17C15.2381 15.8954 14.3427 15 13.2381 15H11.7619C10.6573 15 9.7619 15.8954 9.7619 17V22C9.7619 23.1046 8.86647 24 7.7619 24H3C1.89543 24 1 23.1046 1 22V12.3822C1 11.8202 1.23644 11.2841 1.65146 10.9052Z" stroke="black" stroke-width="2"/></svg>
