<svg width="29" height="31" viewBox="0 0 29 31" fill="none" xmlns="http://www.w3.org/2000/svg"><path d="M20.5199 8.19034C20.5199 4.86423 17.8261 2.17046 14.5 2.17046C11.1739 2.17046 8.48009 4.86423 8.48009 8.19034C8.48009 11.5165 11.1739 14.2102 14.5 14.2102C17.8261 14.2102 20.5199 11.5165 20.5199 8.19034ZM21.6903 8.19034C21.6903 12.1629 18.4725 15.3807 14.5 15.3807C10.5274 15.3807 7.30964 12.1629 7.30964 8.19034C7.30964 4.2178 10.5274 1 14.5 1C18.4725 1 21.6903 4.2178 21.6903 8.19034ZM2.75566 26.6469C2.75566 26.8763 2.75108 27.0478 2.74705 27.1988C2.74533 27.2634 2.74371 27.3243 2.74258 27.3843C2.7409 27.4741 2.73996 27.5815 2.74697 27.6843C2.75326 27.7766 2.77014 27.9516 2.84953 28.138C2.94656 28.3657 3.1217 28.5755 3.37943 28.7054C3.59159 28.8123 3.79156 28.8286 3.88143 28.8336C3.97356 28.8388 4.06951 28.8358 4.12748 28.8341L4.13574 28.8338L4.15028 28.8334C4.21533 28.8314 4.2756 28.8295 4.34624 28.8295H24.6537C24.7296 28.8295 24.7935 28.8317 24.8642 28.8338L24.8725 28.8341C24.9305 28.8358 25.0264 28.8388 25.1185 28.8336C25.2084 28.8286 25.4084 28.8123 25.6205 28.7054C25.8783 28.5755 26.0534 28.3657 26.1504 28.138C26.2298 27.9516 26.2467 27.7766 26.253 27.6843C26.26 27.5815 26.2591 27.4741 26.2574 27.3843C26.2563 27.3243 26.2546 27.2634 26.2529 27.1988C26.2489 27.0478 26.2443 26.8763 26.2443 26.6469C26.2443 24.4066 24.5897 22.8088 22.4909 21.8243C20.364 20.8266 17.5216 20.3125 14.5 20.3125C11.4784 20.3125 8.63594 20.8266 6.50905 21.8243C4.41024 22.8088 2.75566 24.4066 2.75566 26.6469ZM1.58521 26.6469C1.58521 24.1682 2.9202 22.3381 5.23037 21.0744C7.57897 19.7897 10.8731 19.142 14.5 19.142C18.1269 19.142 21.421 19.7897 23.7696 21.0744C26.0798 22.3381 27.4148 24.1682 27.4148 26.6469C27.4148 28.0755 27.1271 28.8704 26.7409 29.3094C26.3806 29.7192 25.7713 30 24.6537 30H4.34624C3.22867 30 2.6194 29.7192 2.25903 29.3094C1.87291 28.8704 1.58521 28.0755 1.58521 26.6469Z" stroke="black" stroke-width="2"/></svg>
