<svg width="26" height="26" fill="none" xmlns="http://www.w3.org/2000/svg"><path d="M11.245 0C5.045 0 0 5.043 0 11.241c0 6.198 5.044 11.24 11.245 11.24 6.2 0 11.244-5.042 11.244-11.24S17.445 0 11.245 0zm0 20.634c-5.184 0-9.402-4.214-9.402-9.393 0-5.18 4.218-9.393 9.402-9.393 5.183 0 9.4 4.213 9.4 9.393 0 5.18-4.216 9.393-9.4 9.393z" fill="#D30032"/><path d="M25.228 23.921l-6.052-6.036a.92.92 0 0 0-1.304.003.926.926 0 0 0 .004 1.307l6.052 6.036a.918.918 0 0 0 1.304-.003.926.926 0 0 0-.004-1.307z" fill="#D30032"/></svg>