<svg width="25" height="31" viewBox="0 0 25 31" fill="none" xmlns="http://www.w3.org/2000/svg"><path d="M12.9552 1.49814L12.942 1.49589L12.9288 1.494C12.6354 1.45213 12.3647 1.45213 12.0713 1.494C11.7244 1.54349 11.4134 1.63459 10.7309 1.86207L2.33338 4.66125L1.64961 4.88918V5.60994V17.0355C1.64961 19.7326 2.48632 22.1364 4.18764 24.2164C5.87396 26.2781 8.37068 27.9753 11.6271 29.3596C12.1811 29.5951 12.8113 29.5983 13.364 29.3634L13.3641 29.3634L13.3712 29.3603L13.8071 29.1711L13.8071 29.1711L13.8143 29.1679C16.9272 27.7871 19.3146 26.1059 20.9266 24.0749C22.5522 22.0269 23.3504 19.6709 23.3504 17.0355V5.60994V4.88914L22.6666 4.66124L14.076 1.79817L14.076 1.79816L14.0716 1.79671C13.6488 1.65797 13.3784 1.57769 13.1326 1.52872L13.1188 1.52597L13.1049 1.52361L12.9552 1.49814ZM10.1923 18.3399L10.8994 19.0467L11.6064 18.3398L18.1235 11.8236L18.1236 11.8236C18.2139 11.7333 18.3603 11.7333 18.4507 11.8236C18.5289 11.9019 18.5397 12.0237 18.4817 12.1127L18.4287 12.1726L11.0629 19.5385C10.9846 19.6168 10.8628 19.6275 10.7738 19.5695L10.7138 19.5166L6.73404 15.5368C6.64372 15.4464 6.64372 15.3 6.73404 15.2097C6.81231 15.1314 6.93411 15.1207 7.02316 15.1787L7.08314 15.2316L10.1923 18.3399ZM12.0059 1.03604C12.3427 0.987988 12.6574 0.987988 12.9941 1.03604C13.326 1.08339 13.6103 1.15484 14.4154 1.42321L22.8129 4.22239C23.4102 4.42147 23.813 4.98039 23.813 5.60994V17.0355C23.813 22.4188 20.6314 26.6491 13.9967 29.593L13.5505 29.7867C12.878 30.0716 12.1185 30.0711 11.4462 29.7853C7.96662 28.3062 5.4044 26.4843 3.71572 24.3683C2.0389 22.2672 1.18701 19.8321 1.18701 17.0355V5.60994C1.18701 4.98042 1.58982 4.42152 2.18703 4.22242C2.18705 4.22241 2.18707 4.2224 2.1871 4.22239L10.8134 1.34769C11.4459 1.14112 11.7078 1.07857 12.0059 1.03604Z" fill="#777777" stroke="black" stroke-width="2"/></svg>
