<svg width="25" height="25" viewBox="0 0 25 25" fill="none" xmlns="http://www.w3.org/2000/svg">
<path d="M11.3671 2.01857L8.83359 8.36092L2.27841 8.90812C1.94404 8.93603 1.644 9.09994 1.43904 9.34908C1.02205 9.85593 1.07229 10.6117 1.56975 11.0554L6.5924 15.5353L5.05512 22.2456C4.98518 22.5509 5.03302 22.8744 5.19372 23.1484C5.53465 23.7295 6.29941 23.9427 6.89698 23.5627L12.5 19.9993L18.1029 23.5627C18.3814 23.7398 18.722 23.7976 19.0473 23.7169C19.727 23.548 20.0874 22.8682 19.9448 22.2456L18.4075 15.5353L23.4302 11.0554C23.6722 10.8395 23.8142 10.5411 23.8382 10.2294C23.8873 9.59195 23.4279 8.96708 22.7215 8.90812L16.1663 8.36092L13.6328 2.01857L12.7042 2.38952L13.6328 2.01857C13.5156 1.72508 13.2863 1.47932 12.9823 1.34767C12.3269 1.06382 11.6125 1.40403 11.3671 2.01857ZM22.0989 9.56286L22.0981 9.56356L22.0989 9.56286ZM13.0366 20.6034L12.5 20.2621L11.9633 20.6034L6.94858 23.7927C6.32052 24.1921 5.48483 24.0027 5.07714 23.3077C4.8797 22.9711 4.81601 22.5614 4.90548 22.1708L6.26891 16.2194L6.4009 15.6432L5.95979 15.2498L1.49708 11.2694C0.903821 10.7402 0.827269 9.78674 1.3446 9.15791C1.5866 8.86375 1.92185 8.69062 2.27233 8.66136L8.12972 8.17242L8.74584 8.12099L8.97518 7.54684L11.2318 1.89756C11.5379 1.13137 12.3456 0.817824 13.0163 1.10825C13.3466 1.25133 13.6215 1.53053 13.7681 1.89756L16.0247 7.54684L16.2541 8.12099L16.8702 8.17242L22.7276 8.66136C23.4528 8.7219 24.0609 9.40228 23.9952 10.2554C23.9643 10.6568 23.7826 11.0199 23.5028 11.2694L19.0401 15.2498L18.599 15.6432L18.731 16.2194L20.0944 22.1708C20.285 23.0028 19.7831 23.7834 19.0659 23.9615C18.7228 24.0467 18.3592 23.9885 18.0513 23.7927L13.0366 20.6034Z" stroke="black" stroke-width="2"/>
</svg>
