<svg width="86" height="39" fill="none" xmlns="http://www.w3.org/2000/svg"><g clip-path="url(#clip0)"><path d="M56.1 28.09c-1.61.422-3.705.63-5.527.63-4.677 0-7.774-2.46-7.774-6.962 0-4.26 2.885-7.02 7.106-7.02.941 0 1.943.118 2.55.42V8.971H56.1v19.119zm-3.645-9.752c-.577-.27-1.336-.42-2.248-.42-2.215 0-3.704 1.35-3.704 3.72 0 2.552 1.61 3.993 4.19 3.993.457 0 1.155-.03 1.762-.15v-7.143zM86 28.09c-1.61.42-3.706.629-5.528.629-4.675 0-7.774-2.46-7.774-6.962 0-4.26 2.886-7.02 7.107-7.02.941 0 1.944.118 2.551.42V8.971H86v19.119zm-3.644-9.753c-.578-.27-1.337-.42-2.248-.42-2.216 0-3.704 1.35-3.704 3.72 0 2.552 1.61 3.993 4.19 3.993.456 0 1.154-.03 1.762-.15v-7.143zm-20.526-.03c.606-.24 1.455-.33 2.184-.33 2.248 0 3.797 1.29 3.797 3.6 0 2.725-1.716 3.957-4.01 3.99v3.15l.184.002c4.705 0 7.53-2.61 7.53-7.261 0-4.232-3.005-6.721-7.44-6.721-2.246 0-4.464.51-5.92 1.11v17.976h3.675V18.308z" fill="#414042"/><path d="M23.023 17.425a.571.571 0 0 1-.535-.01l-.866-.508a.564.564 0 0 1-.193-.21.562.562 0 0 1-.09-.27l-.022-.998a.556.556 0 0 1 .257-.46l10.414-5.996L17.375 1.1a1.254 1.254 0 0 0-.586-.13c-.213-.001-.425.042-.586.13L1.589 8.973 17.96 18.39a.55.55 0 0 1 .267.453v13.74c0 .172-.125.37-.278.451l-.88.484a.576.576 0 0 1-.264.059h-.017a.577.577 0 0 1-.281-.06l-.884-.483a.556.556 0 0 1-.273-.451V20.335a.343.343 0 0 0-.147-.24L.78 11.797V28.05c0 .364.26.812.577.996l14.855 8.658c.159.092.368.138.577.137.209 0 .418-.044.576-.137l14.857-8.658c.317-.186.576-.632.576-.996V11.797l-9.775 5.628z" fill="url(#paint0_linear)"/></g><defs><linearGradient id="paint0_linear" x1=".933" y1="32.26" x2="16.985" y2="18.631" gradientUnits="userSpaceOnUse"><stop stop-color="#A90034"/><stop offset=".272" stop-color="#B03"/><stop offset=".723" stop-color="#D30032"/><stop offset="1" stop-color="#DC0032"/></linearGradient><clipPath id="clip0"><path fill="#fff" d="M0 0h86v39H0z"/></clipPath></defs></svg>