<svg width="199" height="40" viewBox="0 0 199 40" fill="none" xmlns="http://www.w3.org/2000/svg">
<path fill-rule="evenodd" clip-rule="evenodd" d="M17.0732 9.14634C16.2649 9.14634 15.6098 8.49115 15.6098 7.68293V3.56525C15.6098 1.33337 16.6375 0 18.2988 0C19.1582 0 20.192 0.372034 21.2181 1.07498L43.4366 16.2856C44.8677 17.2651 45.6503 18.5833 45.65 19.9982C45.65 21.4142 44.8583 22.7326 43.4288 23.7124L21.2 38.9227C20.1716 39.6276 19.1543 40 18.2936 40C16.6362 40 15.6098 38.6692 15.6098 36.4399V34.0244C15.6098 33.2162 16.2649 32.561 17.0732 32.561H21.9512C22.7594 32.561 23.4146 31.9058 23.4146 31.0976V26.2195C23.4146 25.4113 22.7594 24.7561 21.9512 24.7561H17.0732C16.2649 24.7561 15.6098 24.1009 15.6098 23.2927V18.4146C15.6098 17.6064 16.2649 16.9512 17.0732 16.9512H21.9512C22.7594 16.9512 23.4146 16.296 23.4146 15.4878V10.6098C23.4146 9.80153 22.7594 9.14634 21.9512 9.14634H17.0732ZM23.4146 23.2927C23.4146 24.1009 24.0698 24.7561 24.8781 24.7561H29.7561C30.5643 24.7561 31.2195 24.1009 31.2195 23.2927V18.4146C31.2195 17.6064 30.5643 16.9512 29.7561 16.9512H24.8781C24.0698 16.9512 23.4146 17.6064 23.4146 18.4146V23.2927Z" fill="url(#paint0_linear)"/>
<path d="M7.80488 10.6098C7.80488 9.80153 8.46007 9.14634 9.26829 9.14634H14.1463C14.9546 9.14634 15.6098 9.80153 15.6098 10.6098V15.4878C15.6098 16.296 14.9546 16.9512 14.1463 16.9512H9.26829C8.46007 16.9512 7.80488 16.296 7.80488 15.4878V10.6098Z" fill="url(#paint1_linear)"/>
<path d="M7.80488 26.2195C7.80488 25.4113 8.46007 24.7561 9.26829 24.7561H14.1463C14.9546 24.7561 15.6098 25.4113 15.6098 26.2195V31.0976C15.6098 31.9058 14.9546 32.561 14.1463 32.561H9.26829C8.46007 32.561 7.80488 31.9058 7.80488 31.0976V26.2195Z" fill="url(#paint2_linear)"/>
<path d="M0 18.4146C0 17.6064 0.655193 16.9512 1.46341 16.9512H6.34146C7.14969 16.9512 7.80488 17.6064 7.80488 18.4146V23.2927C7.80488 24.1009 7.14969 24.7561 6.34146 24.7561H1.46341C0.655193 24.7561 0 24.1009 0 23.2927V18.4146Z" fill="url(#paint3_linear)"/>
<path d="M70.8598 15.642H66.7012V23.6908C66.7012 24.3839 66.8577 24.8869 67.1708 25.1999C67.4838 25.4906 67.9421 25.6583 68.5458 25.703C69.1718 25.7253 69.9431 25.7142 70.8598 25.6695V28.9225C68.0874 29.2579 66.0976 29.0231 64.8903 28.2182C63.683 27.391 63.0793 25.8819 63.0793 23.6908V15.642H59.9939V12.1542H63.0793V8.53226L66.7012 7.45909V12.1542H70.8598V15.642Z" fill="url(#paint4_linear)"/>
<path d="M77.9305 14.9713C78.8472 12.892 80.5687 11.8524 83.0951 11.8524V15.7762C81.709 15.6867 80.5016 16.0221 79.4732 16.7823C78.4447 17.5201 77.9305 18.7497 77.9305 20.4713V28.9225H74.3085V12.1542H77.9305V14.9713Z" fill="url(#paint5_linear)"/>
<path d="M98.2657 12.1542H101.888V28.9225H98.2657V26.5079C96.9019 28.4083 94.9456 29.3585 92.3968 29.3585C90.094 29.3585 88.1265 28.5089 86.4944 26.8097C84.8623 25.0882 84.0462 22.9977 84.0462 20.5384C84.0462 18.0567 84.8623 15.9662 86.4944 14.267C88.1265 12.5678 90.094 11.7182 92.3968 11.7182C94.9456 11.7182 96.9019 12.6573 98.2657 14.5353V12.1542ZM89.1773 24.3951C90.1834 25.4012 91.4466 25.9042 92.9669 25.9042C94.4873 25.9042 95.7505 25.4012 96.7566 24.3951C97.7627 23.3666 98.2657 22.081 98.2657 20.5384C98.2657 18.9957 97.7627 17.7213 96.7566 16.7152C95.7505 15.6867 94.4873 15.1725 92.9669 15.1725C91.4466 15.1725 90.1834 15.6867 89.1773 16.7152C88.1712 17.7213 87.6682 18.9957 87.6682 20.5384C87.6682 22.081 88.1712 23.3666 89.1773 24.3951Z" fill="url(#paint6_linear)"/>
<path d="M119.39 5.44689H123.012V28.9225H119.39V26.5079C118.026 28.4083 116.07 29.3585 113.521 29.3585C111.218 29.3585 109.251 28.5089 107.618 26.8097C105.986 25.0882 105.17 22.9977 105.17 20.5384C105.17 18.0567 105.986 15.9662 107.618 14.267C109.251 12.5678 111.218 11.7182 113.521 11.7182C116.07 11.7182 118.026 12.6573 119.39 14.5353V5.44689ZM110.301 24.3951C111.308 25.4012 112.571 25.9042 114.091 25.9042C115.611 25.9042 116.875 25.4012 117.881 24.3951C118.887 23.3666 119.39 22.081 119.39 20.5384C119.39 18.9957 118.887 17.7213 117.881 16.7152C116.875 15.6867 115.611 15.1725 114.091 15.1725C112.571 15.1725 111.308 15.6867 110.301 16.7152C109.295 17.7213 108.792 18.9957 108.792 20.5384C108.792 22.081 109.295 23.3666 110.301 24.3951Z" fill="url(#paint7_linear)"/>
<path d="M130.084 22.081C130.352 23.3554 130.967 24.3392 131.929 25.0323C132.89 25.703 134.064 26.0384 135.45 26.0384C137.373 26.0384 138.815 25.3453 139.776 23.9591L142.761 25.703C141.106 28.14 138.658 29.3585 135.416 29.3585C132.689 29.3585 130.487 28.5312 128.81 26.8768C127.133 25.1999 126.294 23.0871 126.294 20.5384C126.294 18.0343 127.122 15.9438 128.776 14.267C130.431 12.5678 132.555 11.7182 135.148 11.7182C137.607 11.7182 139.62 12.579 141.185 14.3006C142.772 16.0221 143.566 18.1125 143.566 20.5719C143.566 20.952 143.521 21.455 143.432 22.081H130.084ZM130.051 19.1298H139.91C139.664 17.766 139.094 16.7375 138.2 16.0445C137.328 15.3514 136.3 15.0048 135.115 15.0048C133.773 15.0048 132.655 15.3737 131.761 16.1115C130.867 16.8493 130.296 17.8554 130.051 19.1298Z" fill="url(#paint8_linear)"/>
<path d="M156.244 11.7182C158.547 11.7182 160.514 12.579 162.146 14.3006C163.778 15.9997 164.594 18.079 164.594 20.5384C164.594 23.0201 163.778 25.1105 162.146 26.8097C160.514 28.5089 158.547 29.3585 156.244 29.3585C153.695 29.3585 151.739 28.4195 150.375 26.5414V35.6298H146.753V12.1542H150.375V14.5688C151.739 12.6684 153.695 11.7182 156.244 11.7182ZM151.884 24.3951C152.89 25.4012 154.153 25.9042 155.674 25.9042C157.194 25.9042 158.457 25.4012 159.463 24.3951C160.469 23.3666 160.972 22.081 160.972 20.5384C160.972 18.9957 160.469 17.7213 159.463 16.7152C158.457 15.6867 157.194 15.1725 155.674 15.1725C154.153 15.1725 152.89 15.6867 151.884 16.7152C150.878 17.7213 150.375 18.9957 150.375 20.5384C150.375 22.081 150.878 23.3666 151.884 24.3951Z" fill="url(#paint9_linear)"/>
<path d="M170.802 16.7823C170.802 17.3412 171.104 17.7884 171.708 18.1237C172.334 18.4367 173.083 18.7162 173.955 18.9621C174.849 19.1857 175.744 19.454 176.638 19.767C177.532 20.08 178.281 20.6166 178.885 21.3768C179.511 22.1146 179.824 23.0536 179.824 24.1938C179.824 25.8036 179.198 27.0668 177.946 27.9835C176.716 28.9001 175.162 29.3585 173.284 29.3585C171.63 29.3585 170.21 29.0119 169.025 28.3188C167.84 27.6258 166.979 26.6644 166.443 25.4347L169.562 23.6237C170.143 25.2335 171.384 26.0384 173.284 26.0384C175.185 26.0384 176.135 25.4123 176.135 24.1603C176.135 23.6237 175.822 23.1877 175.196 22.8524C174.592 22.517 173.843 22.2375 172.949 22.014C172.077 21.768 171.194 21.4886 170.299 21.1756C169.405 20.8625 168.645 20.3483 168.019 19.6329C167.415 18.8951 167.113 17.9672 167.113 16.8493C167.113 15.3067 167.695 14.0658 168.857 13.1268C170.042 12.1877 171.507 11.7182 173.251 11.7182C174.637 11.7182 175.867 12.0312 176.94 12.6573C178.035 13.2609 178.874 14.1105 179.455 15.206L176.403 16.9164C175.822 15.642 174.771 15.0048 173.251 15.0048C172.558 15.0048 171.976 15.1613 171.507 15.4743C171.037 15.765 170.802 16.201 170.802 16.7823Z" fill="url(#paint10_linear)"/>
<path d="M191.828 11.7182C193.751 11.7182 195.304 12.3331 196.489 13.5627C197.674 14.7924 198.267 16.4804 198.267 18.6268V28.9225H194.645V18.9957C194.645 17.7436 194.31 16.7823 193.639 16.1115C192.968 15.4408 192.051 15.1054 190.889 15.1054C189.614 15.1054 188.586 15.5079 187.803 16.3127C187.021 17.0953 186.63 18.3026 186.63 19.9347V28.9225H183.008V12.1542H186.63V14.3006C187.725 12.579 189.458 11.7182 191.828 11.7182Z" fill="url(#paint11_linear)"/>
<defs>
<linearGradient id="paint0_linear" x1="-34.8781" y1="37.4591" x2="56.6816" y2="-147.039" gradientUnits="userSpaceOnUse">
<stop stop-color="#00A3FF"/>
<stop offset="1" stop-color="#66C5FF"/>
</linearGradient>
<linearGradient id="paint1_linear" x1="-34.8781" y1="37.4591" x2="56.6816" y2="-147.039" gradientUnits="userSpaceOnUse">
<stop stop-color="#00A3FF"/>
<stop offset="1" stop-color="#66C5FF"/>
</linearGradient>
<linearGradient id="paint2_linear" x1="-34.8781" y1="37.4591" x2="56.6816" y2="-147.039" gradientUnits="userSpaceOnUse">
<stop stop-color="#00A3FF"/>
<stop offset="1" stop-color="#66C5FF"/>
</linearGradient>
<linearGradient id="paint3_linear" x1="-34.8781" y1="37.4591" x2="56.6816" y2="-147.039" gradientUnits="userSpaceOnUse">
<stop stop-color="#00A3FF"/>
<stop offset="1" stop-color="#66C5FF"/>
</linearGradient>
<linearGradient id="paint4_linear" x1="-34.8781" y1="37.4591" x2="56.6816" y2="-147.039" gradientUnits="userSpaceOnUse">
<stop stop-color="#00A3FF"/>
<stop offset="1" stop-color="#66C5FF"/>
</linearGradient>
<linearGradient id="paint5_linear" x1="-34.8781" y1="37.4591" x2="56.6816" y2="-147.039" gradientUnits="userSpaceOnUse">
<stop stop-color="#00A3FF"/>
<stop offset="1" stop-color="#66C5FF"/>
</linearGradient>
<linearGradient id="paint6_linear" x1="-34.8781" y1="37.4591" x2="56.6816" y2="-147.039" gradientUnits="userSpaceOnUse">
<stop stop-color="#00A3FF"/>
<stop offset="1" stop-color="#66C5FF"/>
</linearGradient>
<linearGradient id="paint7_linear" x1="-34.8781" y1="37.4591" x2="56.6816" y2="-147.039" gradientUnits="userSpaceOnUse">
<stop stop-color="#00A3FF"/>
<stop offset="1" stop-color="#66C5FF"/>
</linearGradient>
<linearGradient id="paint8_linear" x1="-34.8781" y1="37.4591" x2="56.6816" y2="-147.039" gradientUnits="userSpaceOnUse">
<stop stop-color="#00A3FF"/>
<stop offset="1" stop-color="#66C5FF"/>
</linearGradient>
<linearGradient id="paint9_linear" x1="-34.8781" y1="37.4591" x2="56.6816" y2="-147.039" gradientUnits="userSpaceOnUse">
<stop stop-color="#00A3FF"/>
<stop offset="1" stop-color="#66C5FF"/>
</linearGradient>
<linearGradient id="paint10_linear" x1="-34.8781" y1="37.4591" x2="56.6816" y2="-147.039" gradientUnits="userSpaceOnUse">
<stop stop-color="#00A3FF"/>
<stop offset="1" stop-color="#66C5FF"/>
</linearGradient>
<linearGradient id="paint11_linear" x1="-34.8781" y1="37.4591" x2="56.6816" y2="-147.039" gradientUnits="userSpaceOnUse">
<stop stop-color="#00A3FF"/>
<stop offset="1" stop-color="#66C5FF"/>
</linearGradient>
</defs>
</svg>
