<svg width="33" height="38" fill="none" xmlns="http://www.w3.org/2000/svg"><path d="M23.023 17.425a.571.571 0 0 1-.535-.01l-.866-.508a.564.564 0 0 1-.193-.21.563.563 0 0 1-.09-.27l-.022-.998a.556.556 0 0 1 .257-.46l10.414-5.996L17.375 1.1a1.255 1.255 0 0 0-.586-.13c-.213-.001-.425.042-.586.13L1.589 8.973 17.96 18.39a.55.55 0 0 1 .267.453v13.74c0 .172-.125.37-.278.451l-.88.484a.576.576 0 0 1-.264.059h-.017a.577.577 0 0 1-.281-.06l-.884-.483a.556.556 0 0 1-.273-.451V20.335a.343.343 0 0 0-.147-.24L.78 11.797V28.05c0 .364.259.812.577.996l14.855 8.658c.159.092.368.138.577.137.209 0 .418-.044.576-.137l14.857-8.658c.317-.186.576-.632.576-.996V11.797l-9.775 5.628z" fill="url(#paint0_linear)"/><defs><linearGradient id="paint0_linear" x1=".933" y1="32.26" x2="16.985" y2="18.631" gradientUnits="userSpaceOnUse"><stop stop-color="#A90034"/><stop offset=".272" stop-color="#B03"/><stop offset=".723" stop-color="#D30032"/><stop offset="1" stop-color="#DC0032"/></linearGradient></defs></svg>