<svg width="29" height="23" viewBox="0 0 29 23" fill="none" xmlns="http://www.w3.org/2000/svg">
<path d="M27.55 10.0625H1.45C0.649187 10.0625 0 10.7061 0 11.5C0 12.2939 0.649187 12.9375 1.45 12.9375H27.55C28.3508 12.9375 29 12.2939 29 11.5C29 10.7061 28.3508 10.0625 27.55 10.0625ZM27.55 0H1.45C0.649187 0 0 0.643591 0 1.4375C0 2.23141 0.649187 2.875 1.45 2.875H27.55C28.3508 2.875 29 2.23141 29 1.4375C29 0.643591 28.3508 0 27.55 0ZM1.45 23H15.95C16.7508 23 17.4 22.3564 17.4 21.5625C17.4 20.7686 16.7508 20.125 15.95 20.125H1.45C0.649187 20.125 0 20.7686 0 21.5625C0 22.3564 0.649187 23 1.45 23Z" fill="#777777"/>
</svg>
